<svg width="960" height="430" viewBox="0 0 960 430" xmlns="http://www.w3.org/2000/svg" role="img" aria-label="undump architecture: the agent pulls a dump from S3, restores it into an ephemeral database container inside your infrastructure, and optionally sends only a pass/fail report to UnDump Cloud" font-family="ui-monospace, SFMono-Regular, Menlo, Consolas, monospace">
  <defs>
    <marker id="arrow" viewBox="0 0 10 10" refX="9" refY="5" markerWidth="8" markerHeight="8" orient="auto-start-reverse">
      <path d="M0 0 L10 5 L0 10 z" fill="#9da7b3"/>
    </marker>
    <marker id="arrowGreen" viewBox="0 0 10 10" refX="9" refY="5" markerWidth="8" markerHeight="8" orient="auto-start-reverse">
      <path d="M0 0 L10 5 L0 10 z" fill="#3fb950"/>
    </marker>
  </defs>

  <rect x="1" y="1" width="958" height="428" rx="14" fill="#0d1117" stroke="#30363d"/>

  <!-- trust boundary -->
  <rect x="24" y="42" width="572" height="360" rx="12" fill="#11161f" stroke="#4d586b" stroke-width="1.5" stroke-dasharray="7 6"/>
  <text x="44" y="72" font-size="14" font-weight="700" fill="#9da7b3" letter-spacing="2">YOUR INFRASTRUCTURE</text>

  <!-- S3 box -->
  <g>
    <rect x="44" y="118" width="190" height="110" rx="10" fill="#1a2130" stroke="#30363d" stroke-width="1.5"/>
    <path d="M103 146 v20 a20 7 0 0 0 40 0 v-20" fill="none" stroke="#8ab4f8" stroke-width="2"/>
    <ellipse cx="123" cy="146" rx="20" ry="7" fill="none" stroke="#8ab4f8" stroke-width="2"/>
    <text x="153" y="158" font-size="15" font-weight="700" fill="#e6edf3">S3</text>
    <text x="139" y="196" font-size="12" fill="#9da7b3" text-anchor="middle">your existing dumps</text>
    <text x="139" y="214" font-size="11" fill="#6e7a87" text-anchor="middle">any S3-compatible API</text>
  </g>

  <!-- pull arrow -->
  <line x1="234" y1="173" x2="278" y2="173" stroke="#9da7b3" stroke-width="2" marker-end="url(#arrow)"/>
  <text x="256" y="163" font-size="12" fill="#9da7b3" text-anchor="middle">pull</text>

  <!-- agent box -->
  <g>
    <rect x="282" y="96" width="296" height="256" rx="10" fill="#1a2130" stroke="#3fb950" stroke-width="1.5"/>
    <text x="302" y="128" font-size="16" font-weight="700" fill="#e6edf3">undump agent</text>
    <line x1="302" y1="142" x2="558" y2="142" stroke="#30363d"/>
    <g font-size="13" fill="#c9d1d9">
      <text x="302" y="170"><tspan fill="#3fb950" font-weight="700">1</tspan>  fetch the dump</text>
      <text x="302" y="198"><tspan fill="#3fb950" font-weight="700">2</tspan>  docker run — ephemeral pg/mysql</text>
      <text x="302" y="226"><tspan fill="#3fb950" font-weight="700">3</tspan>  pg_restore / psql / mysql</text>
      <text x="302" y="254"><tspan fill="#3fb950" font-weight="700">4</tspan>  checks against the restored DB</text>
      <text x="302" y="282"><tspan fill="#3fb950" font-weight="700">5</tspan>  docker rm — container is gone</text>
    </g>
    <text x="302" y="322" font-size="12" fill="#6e7a87">dumps, rows and credentials</text>
    <text x="302" y="338" font-size="12" fill="#6e7a87">never leave this box</text>
  </g>

  <!-- report arrow crossing the boundary -->
  <line x1="578" y1="200" x2="736" y2="200" stroke="#3fb950" stroke-width="2" stroke-dasharray="6 5" marker-end="url(#arrowGreen)"/>
  <g text-anchor="middle" font-size="12">
    <text x="657" y="172" fill="#3fb950">pass / fail</text>
    <text x="657" y="188" fill="#3fb950">+ metrics only</text>
    <text x="657" y="224" fill="#6e7a87">never your data</text>
  </g>

  <!-- cloud box -->
  <g>
    <rect x="740" y="142" width="196" height="116" rx="10" fill="#1a2130" stroke="#30363d" stroke-width="1.5"/>
    <g transform="translate(812,158)">
      <path d="M8 32 a13 13 0 0 1 24 -7 a11 11 0 0 1 18 9 a9 9 0 0 1 -3 17 h-34 a10 10 0 0 1 -5 -19" fill="none" stroke="#8ab4f8" stroke-width="2"/>
    </g>
    <text x="838" y="230" font-size="14" font-weight="700" fill="#e6edf3" text-anchor="middle">UnDump Cloud</text>
    <text x="838" y="248" font-size="11" fill="#6e7a87" text-anchor="middle">(optional)</text>
  </g>
</svg>
