<svg width="920" height="430" viewBox="0 0 920 430" xmlns="http://www.w3.org/2000/svg" role="img" aria-label="undump architecture: the agent pulls a dump from S3, restores it into an ephemeral Postgres container inside your infrastructure, and optionally sends only a pass/fail report to UnDump Cloud" font-family="ui-monospace, SFMono-Regular, Menlo, Consolas, monospace">
  <defs>
    <marker id="arrow" viewBox="0 0 10 10" refX="9" refY="5" markerWidth="8" markerHeight="8" orient="auto-start-reverse">
      <path d="M0 0 L10 5 L0 10 z" fill="#9da7b3"/>
    </marker>
    <marker id="arrowGreen" viewBox="0 0 10 10" refX="9" refY="5" markerWidth="8" markerHeight="8" orient="auto-start-reverse">
      <path d="M0 0 L10 5 L0 10 z" fill="#3fb950"/>
    </marker>
  </defs>

  <rect x="1" y="1" width="918" height="428" rx="14" fill="#0d1117" stroke="#30363d"/>

  <!-- trust boundary -->
  <rect x="24" y="42" width="596" height="360" rx="12" fill="#11161f" stroke="#4d586b" stroke-width="1.5" stroke-dasharray="7 6"/>
  <text x="44" y="72" font-size="14" font-weight="700" fill="#9da7b3" letter-spacing="2">YOUR INFRASTRUCTURE</text>

  <!-- S3 box -->
  <g>
    <rect x="52" y="120" width="170" height="104" rx="10" fill="#1a2130" stroke="#30363d" stroke-width="1.5"/>
    <path d="M84 146 v20 a20 7 0 0 0 40 0 v-20" fill="none" stroke="#8ab4f8" stroke-width="2"/>
    <ellipse cx="104" cy="146" rx="20" ry="7" fill="none" stroke="#8ab4f8" stroke-width="2"/>
    <text x="137" y="158" font-size="15" font-weight="700" fill="#e6edf3">S3</text>
    <text x="68" y="196" font-size="13" fill="#9da7b3">your existing dumps</text>
    <text x="68" y="213" font-size="12" fill="#6e7a87">s3:// · MinIO · any S3 API</text>
  </g>

  <!-- pull arrow -->
  <line x1="222" y1="172" x2="282" y2="172" stroke="#9da7b3" stroke-width="2" marker-end="url(#arrow)"/>
  <text x="252" y="162" font-size="12" fill="#9da7b3" text-anchor="middle">pull</text>

  <!-- agent box -->
  <g>
    <rect x="286" y="96" width="300" height="256" rx="10" fill="#1a2130" stroke="#3fb950" stroke-width="1.5"/>
    <text x="306" y="128" font-size="16" font-weight="700" fill="#e6edf3">undump agent</text>
    <line x1="306" y1="142" x2="566" y2="142" stroke="#30363d"/>
    <g font-size="13" fill="#c9d1d9">
      <text x="306" y="170"><tspan fill="#3fb950" font-weight="700">1</tspan>  fetch the dump</text>
      <text x="306" y="198"><tspan fill="#3fb950" font-weight="700">2</tspan>  docker run — ephemeral postgres</text>
      <text x="306" y="226"><tspan fill="#3fb950" font-weight="700">3</tspan>  pg_restore / psql</text>
      <text x="306" y="254"><tspan fill="#3fb950" font-weight="700">4</tspan>  checks against the restored DB</text>
      <text x="306" y="282"><tspan fill="#3fb950" font-weight="700">5</tspan>  docker rm — container is gone</text>
    </g>
    <text x="306" y="322" font-size="12" fill="#6e7a87">dumps, rows and credentials</text>
    <text x="306" y="338" font-size="12" fill="#6e7a87">never leave this box</text>
  </g>

  <!-- report arrow crossing the boundary -->
  <line x1="586" y1="200" x2="700" y2="200" stroke="#3fb950" stroke-width="2" stroke-dasharray="6 5" marker-end="url(#arrowGreen)"/>
  <text x="648" y="184" font-size="12" fill="#3fb950" text-anchor="middle">pass / fail + metrics</text>
  <text x="648" y="222" font-size="12" fill="#6e7a87" text-anchor="middle">only, and only if</text>
  <text x="648" y="237" font-size="12" fill="#6e7a87" text-anchor="middle">you configure it</text>

  <!-- cloud box -->
  <g>
    <rect x="704" y="148" width="184" height="104" rx="10" fill="#1a2130" stroke="#30363d" stroke-width="1.5"/>
    <path d="M740 190 a13 13 0 0 1 24 -7 a11 11 0 0 1 18 9 a9 9 0 0 1 -3 17 h-34 a10 10 0 0 1 -5 -19" fill="none" stroke="#8ab4f8" stroke-width="2"/>
    <text x="724" y="232" font-size="14" font-weight="700" fill="#e6edf3">UnDump Cloud</text>
    <text x="828" y="232" font-size="12" fill="#6e7a87">(optional)</text>
  </g>
</svg>
