<svg width="820" height="190" viewBox="0 0 820 190" xmlns="http://www.w3.org/2000/svg" role="img" aria-label="undump — continuous backup restore-testing for Postgres">
  <defs>
    <linearGradient id="bg" x1="0" y1="0" x2="1" y2="1">
      <stop offset="0" stop-color="#0d1117"/>
      <stop offset="1" stop-color="#161b27"/>
    </linearGradient>
    <linearGradient id="accent" x1="0" y1="0" x2="1" y2="0">
      <stop offset="0" stop-color="#3fb950"/>
      <stop offset="1" stop-color="#2ea043"/>
    </linearGradient>
  </defs>

  <rect x="1" y="1" width="818" height="188" rx="14" fill="url(#bg)" stroke="#30363d" stroke-width="1"/>

  <!-- database cylinder -->
  <g transform="translate(58,42)">
    <path d="M0 14 v66 a38 14 0 0 0 76 0 v-66" fill="#1c2330" stroke="#4d586b" stroke-width="2.5"/>
    <ellipse cx="38" cy="14" rx="38" ry="14" fill="#232c3d" stroke="#4d586b" stroke-width="2.5"/>
    <path d="M0 36 a38 14 0 0 0 76 0" fill="none" stroke="#4d586b" stroke-width="2"/>
    <path d="M0 58 a38 14 0 0 0 76 0" fill="none" stroke="#4d586b" stroke-width="2"/>
    <!-- restore-check badge -->
    <circle cx="72" cy="82" r="24" fill="url(#accent)" stroke="#0d1117" stroke-width="5"/>
    <path d="M61 82.5 l7.5 8 l14 -15.5" fill="none" stroke="#0d1117" stroke-width="5" stroke-linecap="round" stroke-linejoin="round"/>
  </g>

  <!-- wordmark -->
  <g font-family="ui-monospace, SFMono-Regular, Menlo, Consolas, monospace">
    <text x="196" y="92" font-size="52" font-weight="700" fill="#e6edf3">un<tspan fill="#3fb950">dump</tspan></text>
    <text x="198" y="130" font-size="17" fill="#9da7b3">Continuous backup restore-testing for Postgres.</text>
    <text x="198" y="156" font-size="14" fill="#6e7a87">A backup you never restored is a rumor, not a backup.</text>
  </g>

  <!-- status chips -->
  <g font-family="ui-monospace, SFMono-Regular, Menlo, Consolas, monospace" font-size="13" font-weight="600">
    <rect x="642" y="52" width="120" height="30" rx="15" fill="#12261a" stroke="#238636"/>
    <text x="702" y="72" text-anchor="middle" fill="#3fb950">RESTORED ✓</text>
    <rect x="642" y="94" width="120" height="30" rx="15" fill="#1a2130" stroke="#30363d"/>
    <text x="702" y="114" text-anchor="middle" fill="#9da7b3">rto=14.32s</text>
  </g>
</svg>
